<svg width="16" height="10" viewBox="0 0 16 10" fill="none" xmlns="http://www.w3.org/2000/svg">
<path d="M15.0914 4.52815C15.0914 5.72908 14.6144 6.88083 13.7652 7.73002C12.916 8.57921 11.7642 9.05628 10.5633 9.05628C9.44735 9.05881 8.37071 8.6443 7.54456 7.89406C8.01641 7.46944 8.39372 6.95036 8.65199 6.37049C8.91026 5.79062 9.04373 5.16293 9.04373 4.52815C9.04373 3.89336 8.91026 3.26567 8.65199 2.68581C8.39372 2.10594 8.01641 1.58685 7.54456 1.16223C8.37071 0.411997 9.44735 -0.00251139 10.5633 1.14488e-05C11.7642 1.14488e-05 12.916 0.477081 13.7652 1.32627C14.6144 2.17546 15.0914 3.32721 15.0914 4.52815Z" fill="#FFC107"/>
<path d="M9.05506 4.52778C9.05377 5.16333 8.91871 5.79149 8.65866 6.37141C8.39861 6.95132 8.01939 7.46999 7.54568 7.89369C7.07382 7.46907 6.69652 6.94999 6.43825 6.37012C6.17997 5.79025 6.04651 5.16256 6.04651 4.52778C6.04651 3.893 6.17997 3.2653 6.43825 2.68544C6.69652 2.10557 7.07382 1.58649 7.54568 1.16187C8.01939 1.58557 8.39861 2.10424 8.65866 2.68415C8.91871 3.26407 9.05377 3.89223 9.05506 4.52778Z" fill="#EA8C28"/>
<path d="M7.54689 7.8943C6.72074 8.64454 5.6441 9.05905 4.52814 9.05653C3.3272 9.05653 2.17545 8.57946 1.32626 7.73027C0.47707 6.88108 0 5.72933 0 4.52839C0 3.32746 0.47707 2.17571 1.32626 1.32652C2.17545 0.477325 3.3272 0.000255625 4.52814 0.000255589C5.6441 -0.00226725 6.72074 0.412241 7.54689 1.16248C7.07504 1.5871 6.69773 2.10618 6.43946 2.68605C6.18119 3.26592 6.04772 3.89361 6.04772 4.52839C6.04772 5.16317 6.18119 5.79087 6.43946 6.37073C6.69773 6.9506 7.07504 7.46968 7.54689 7.8943Z" fill="#F44336"/>
</svg>
