<svg width="29" height="29" viewBox="0 0 29 29" fill="none" xmlns="http://www.w3.org/2000/svg">
<path d="M25.0537 0C25.884 7.42251e-05 26.6804 0.329981 27.2676 0.916992C27.8549 1.50429 28.1855 2.30127 28.1855 3.13184V25.0537C28.1855 25.8842 27.8548 26.6803 27.2676 27.2676C26.6803 27.8548 25.8842 28.1855 25.0537 28.1855H3.13184C2.30127 28.1855 1.50429 27.8549 0.916992 27.2676C0.329975 26.6804 6.74099e-05 25.884 0 25.0537V3.13184C4.54587e-06 2.30127 0.329697 1.50429 0.916992 0.916992C1.50429 0.329701 2.30127 0 3.13184 0H25.0537ZM3.91504 24.2705H8.25195V11.165H3.91504V24.2705ZM19.166 10.8672C17.8351 10.8672 16.2848 11.6811 15.5332 12.9023V11.165H11.1641V24.2705H15.5332V16.5508C15.5333 15.3452 16.5043 14.3584 17.71 14.3584C18.2913 14.3585 18.8487 14.5899 19.2598 15.001C19.6708 15.412 19.9013 15.9695 19.9014 16.5508V24.2705H24.2705V15.9717C24.2705 14.6179 23.7326 13.3196 22.7754 12.3623C21.8181 11.405 20.5198 10.8672 19.166 10.8672ZM6.0752 3.42969C5.37351 3.42979 4.70028 3.70793 4.2041 4.2041C3.70793 4.70027 3.4298 5.37352 3.42969 6.0752C3.42969 7.53129 4.61915 8.70584 6.0752 8.70605C6.77287 8.70605 7.44221 8.42888 7.93555 7.93555C8.42887 7.44222 8.70605 6.77287 8.70605 6.0752C8.70583 4.61916 7.53128 3.42969 6.0752 3.42969Z" fill="#E50139"/>
</svg>
